<svg width="24" height="24" viewBox="0 0 24 24" fill="none" xmlns="http://www.w3.org/2000/svg">
<path d="M10.5661 0.442026C10.9756 0.15309 11.4648 -0.00145912 11.966 -0.000209808C12.4673 0.0010376 12.9557 0.15802 13.3637 0.448994C13.7773 0.750866 14.091 1.16884 14.2629 1.65184L15.3016 4.84009C15.5681 5.63922 16.0169 6.36548 16.6125 6.96151C17.2081 7.55755 17.9342 8.00704 18.7335 8.27448L21.9656 9.31942C22.4434 9.49232 22.855 9.81071 23.1422 10.2297C23.4294 10.6487 23.5778 11.1472 23.5665 11.655C23.5552 12.1628 23.3848 12.6542 23.0792 13.06C22.7737 13.4659 22.3484 13.7657 21.8633 13.9172L18.6684 14.9575C17.8684 15.2235 17.1412 15.6719 16.5443 16.2672C15.9475 16.8624 15.4974 17.5882 15.2295 18.3872L14.1793 21.6103C14.0102 22.0852 13.6972 22.4955 13.2838 22.7843C12.8705 23.0731 12.3773 23.2259 11.873 23.2216C11.3687 23.2172 10.8783 23.0559 10.47 22.7601C10.0617 22.4642 9.75579 22.0485 9.59489 21.5708L8.53302 18.3199C8.26645 17.5423 7.82684 16.8353 7.24727 16.2521C6.66771 15.6688 5.9633 15.2246 5.18708 14.9528L1.95731 13.9149C1.48237 13.7455 1.07197 13.4326 0.783096 13.0195C0.494222 12.6064 0.341207 12.1137 0.345295 11.6097C0.349382 11.1058 0.510368 10.6156 0.805904 10.2073C1.10144 9.79894 1.51686 9.49269 1.99449 9.33103L5.18708 8.2977C5.9912 8.03102 6.72147 7.57946 7.31915 6.97933C7.91683 6.37921 8.36523 5.64728 8.62828 4.84241L9.67854 1.61237C9.84583 1.13866 10.1572 0.729967 10.5661 0.442026Z" fill="#358BB9"/>
</svg>
